#!OML:ASF I:\Actors\actors\Patient Classification 1\Patient 1\Session 1\Subject1.ASF
:FULLY-SPECIFIED
:DEGREES
752
root -0.728051 17.5958 7.67257 7.89807 8.09049 -10.7299
lowerback 7.98613 -5.1933 -2.84192
upperback -4.26707 -7.14767 2.13997
thorax -8.36485 -3.26484 4.90049
lowerneck -8.02417 -13.9005 -10.2285
upperneck 35.0302 -23.8286 12.2052
head 17.0358 -10.252 2.56591
rclavicle -1.92573e-014 2.22639e-014
rhumerus -82.7937 31.343 -96.3107
rradius 120.819
rwrist -18.71
rhand 5.23993 -73.8437
rfingers 7.12502
rthumb 30.5988 101.321
lclavicle -1.92573e-014 2.22639e-014
lhumerus -49.9184 -7.3027 95.719
lradius 115.372
lwrist 30.8605
lhand -50.6671 -27.9901
lfingers 7.12502
lthumb -23.2292 0.628919
rfemur -2.99221 18.0583 30.2509
rtibia 3.43892
rfoot -14.4748 -24.9991
rtoes 3.39424
lfemur 2.28081 -45.3155 -7.17557
ltibia -4.48726
lfoot -14.9142 47.3439
ltoes 3.3356
753
root -0.718011 17.5994 7.66838 7.87438 7.48338 -10.7507
lowerback 8.5738 -4.98134 -2.83452
upperback -4.54083 -6.87477 2.21283
thorax -9.02545 -3.097 5.0285
lowerneck -7.67502 -13.9882 -10.3227
upperneck 35.1195 -23.8931 11.9669
head 16.9756 -10.3373 2.49358
rclavicle -8.94531e-016 -1.90833e-014
rhumerus -81.6554 30.9962 -96.9033
rradius 117.452
rwrist -17.1611
rhand 3.99259 -72.8088
rfingers 7.12502
rthumb 29.4086 100.502
lclavicle -8.94531e-016 -1.90833e-014
lhumerus -50.6266 -7.56505 96.1833
lradius 115.32
lwrist 31.0699
lhand -50.8319 -28.3667
lfingers 7.12502
lthumb -23.3873 0.232271
rfemur -2.92549 18.1825 30.1897
rtibia 3.3733
rfoot -14.3092 -24.5716
rtoes 3.19331
lfemur 2.70477 -45.3281 -7.51743
ltibia -4.4994
lfoot -15.6362 47.7589
ltoes 4.16701
754
root -0.706396 17.5998 7.6625 7.97667 6.89795 -10.6259
lowerback 8.43254 -4.82071 -3.17931
upperback -4.3837 -6.684 2.36111
thorax -8.73342 -2.99379 5.32009
lowerneck -7.77613 -14.0531 -10.4275
upperneck 34.9109 -23.8987 11.9426
head 16.8985 -10.3533 2.48523
rclavicle 8.10048e-015 -2.22639e-014
rhumerus -79.4712 30.7391 -96.8738
rradius 113.862
rwrist -15.6674
rhand 4.38812 -72.2089
rfingers 7.12502
rthumb 29.7862 99.8346
lclavicle 8.10048e-015 -2.22639e-014
lhumerus -50.4243 -7.69919 96.52
lradius 115.1
lwrist 31.0024
lhand -50.8516 -28.1344
lfingers 7.12502
lthumb -23.4063 0.462212
rfemur -3.00301 18.2544 29.9239
rtibia 3.31338
rfoot -14.0456 -24.1451
rtoes 2.76341
lfemur 2.87249 -45.1947 -7.85164
ltibia -4.47819
lfoot -16.1878 48.0154
ltoes 4.84941
755
root -0.69496 17.5995 7.65536 8.08483 6.34776 -10.4745
lowerback 8.78353 -4.58202 -3.26201
upperback -4.61211 -6.38402 2.39455
thorax -9.20927 -2.81619 5.41741
lowerneck -7.56441 -14.1251 -10.4549
upperneck 34.9531 -23.9244 11.701
head 16.8272 -10.4051 2.40077
rclavicle -3.67006e-014 1.59028e-015
rhumerus -77.8973 30.2827 -97.1358
rradius 110.014
rwrist -15.5339
rhand 4.59235 -71.8105
rfingers 7.12502
rthumb 29.9811 99.4012
lclavicle -3.67006e-014 1.59028e-015
lhumerus -50.8022 -8.07703 97.0176
lradius 114.808
lwrist 30.8868
lhand -50.8398 -27.9289
lfingers 7.12502
lthumb -23.3949 0.669139
rfemur -3.09122 18.4454 29.6529
rtibia 3.25275
rfoot -13.7441 -23.9154
rtoes 2.09513
lfemur 2.95216 -44.9987 -8.14445
ltibia -4.44544
lfoot -16.5797 48.2019
ltoes 5.29969
756
root -0.684456 17.5992 7.64808 8.22507 5.79004 -10.3471
lowerback 8.63237 -4.41505 -3.75307
upperback -4.52913 -6.19188 2.70268
thorax -8.96705 -2.69539 5.96894
lowerneck -7.86233 -14.1594 -10.417
upperneck 34.9907 -23.7433 11.1868
head 16.7688 -10.3563 2.19878
rclavicle -6.01821e-014 4.13472e-014
rhumerus -75.5287 29.9721 -96.6456
rradius 106.16
rwrist -15.3731
rhand 5.1397 -71.7488
rfingers 7.12502
rthumb 30.5032 99.2438
lclavicle -6.01821e-014 4.13472e-014
lhumerus -50.5039 -8.06436 97.5331
lradius 114.417
lwrist 30.8682
lhand -50.788 -27.7759
lfingers 7.12502
lthumb -23.3453 0.828402
rfemur -3.23867 18.7582 29.4034
rtibia 3.21548
rfoot -13.5376 -23.7791
rtoes 1.88252
lfemur 2.96624 -44.8683 -8.36852
ltibia -4.37882
lfoot -17.1099 48.4415
ltoes 5.92646
757
root -0.671868 17.5985 7.64182 8.4481 5.17603 -10.2017
lowerback 9.18179 -4.07421 -3.75419
upperback -5.09052 -5.75407 2.76572
thorax -9.95969 -2.42161 6.07752
lowerneck -7.61028 -14.3226 -10.5015
upperneck 35.3841 -23.8486 10.6058
head 16.8291 -10.474 1.96806
rclavicle -2.36057e-015 -1.11319e-014
rhumerus -74.5423 30.174 -97.4878
rradius 101.256
rwrist -15.0875
rhand 5.16992 -70.4995
rfingers 7.12502
rthumb 30.532 97.9891
lclavicle -2.36057e-015 -1.11319e-014
lhumerus -51.3186 -8.47616 98.2586
lradius 114.088
lwrist 31.1588
lhand -50.682 -27.5727
lfingers 7.12502
lthumb -23.2435 1.04451
rfemur -3.51583 18.9325 29.0695
rtibia 3.22488
rfoot -13.3287 -23.4314
rtoes 1.70653
lfemur 2.94579 -44.8429 -8.61782
ltibia -4.32199
lfoot -17.8336 48.8201
ltoes 6.86754
758
root -0.658934 17.5975 7.63783 8.64837 4.5606 -10.0632
lowerback 9.40467 -3.74303 -3.93869
upperback -5.403 -5.32975 2.93599
thorax -10.4639 -2.16554 6.34705
lowerneck -7.55447 -14.4342 -10.6238
upperneck 35.52 -23.8493 10.1845
head 16.8199 -10.5301 1.81551
rclavicle -1.22066e-014 3.18055e-014
rhumerus -73.3789 30.3367 -98.1318
rradius 96.2008
rwrist -13.1626
rhand 5.20298 -68.5155
rfingers 7.12502
rthumb 30.5636 95.9992
lclavicle -1.22066e-014 3.18055e-014
lhumerus -51.568 -8.85606 98.9655
lradius 113.619
lwrist 31.6908
lhand -50.5574 -27.6526
lfingers 7.12502
lthumb -23.124 0.979619
rfemur -3.76417 19.0009 28.7363
rtibia 3.23066
rfoot -13.0721 -22.9606
rtoes 1.08868
lfemur 3.03593 -45.0013 -8.95544
ltibia -4.29344
lfoot -18.6862 49.4037
ltoes 7.80547
759
root -0.645777 17.5973 7.63454 8.80429 4.04314 -9.9251
lowerback 9.48119 -3.44876 -4.17828
upperback -5.60077 -4.951 3.16027
thorax -10.7452 -1.93728 6.68924
lowerneck -7.59775 -14.5034 -10.7161
upperneck 35.613 -23.7464 9.71651
head 16.78 -10.54 1.65567
rclavicle 2.505e-014 2.8625e-014
rhumerus -71.7938 30.1901 -97.9278
rradius 92.0193
rwrist -13.6222
rhand 5.61368 -68.4436
rfingers 7.12502
rthumb 30.9551 95.8536
lclavicle 2.505e-014 2.8625e-014
lhumerus -51.557 -9.24907 99.6641
lradius 113.05
lwrist 32.1245
lhand -50.4314 -27.6133
lfingers 7.12502
lthumb -23.0031 1.03408
rfemur -3.90969 19.0852 28.4171
rtibia 3.14411
rfoot -12.8753 -22.5703
rtoes 0.690716
lfemur 3.12417 -45.1521 -9.29798
ltibia -4.24507
lfoot -19.2979 49.9528
ltoes 8.27624
760
root -0.628884 17.5956 7.6293 8.78067 3.68082 -10.0715
lowerback 9.62261 -3.23078 -4.10774
upperback -5.66811 -4.61877 3.4963
thorax -10.9322 -1.75593 6.98357
lowerneck -7.72435 -14.5501 -10.8857
upperneck 35.6344 -23.631 9.39065
head 16.7633 -10.5348 1.56001
rclavicle 2.55035e-014 -4.6118e-014
rhumerus -70.1019 29.873 -97.3334
rradius 88.8884
rwrist -15.5826
rhand 6.07629 -68.905
rfingers 7.12502
rthumb 31.396 96.2303
lclavicle 2.55035e-014 -4.6118e-014
lhumerus -51.3836 -9.54135 100.321
lradius 112.437
lwrist 32.2519
lhand -50.406 -27.2869
lfingers 7.12502
lthumb -22.9787 1.36352
rfemur -3.79235 19.0997 28.5029
rtibia 2.94936
rfoot -12.7131 -22.2463
rtoes 0.417798
lfemur 3.45444 -45.3481 -9.49455
ltibia -4.23283
lfoot -19.8032 50.4631
ltoes 8.58249
761
root -0.613878 17.594 7.62412 8.71208 3.33049 -10.3405
lowerback 9.5488 -3.06028 -4.13018
upperback -5.52441 -4.34226 3.97124
thorax -10.7308 -1.61344 7.45824
lowerneck -8.06822 -14.5731 -11.1399
upperneck 35.4722 -23.5209 9.34467
head 16.7724 -10.501 1.57034
rclavicle 5.73929e-014 -2.14687e-014
rhumerus -68.6054 29.6936 -97.0684
rradius 85.4031
rwrist -14.4176
rhand 6.38804 -66.9063
rfingers 7.12502
rthumb 31.693 94.1734
lclavicle 5.73929e-014 -2.14687e-014
lhumerus -50.8504 -9.65289 100.9
lradius 111.828
lwrist 32.2114
lhand -50.4759 -27.3628
lfingers 7.12502
lthumb -23.0458 1.27923
rfemur -3.6302 19.2205 28.7643
rtibia 2.76186
rfoot -12.5563 -22.0156
rtoes 0.2692
lfemur 3.85365 -45.5718 -9.58819
ltibia -4.24571
lfoot -20.45 51
ltoes 9.17816
